solid mesh
  facet normal -1.0 0.0 -1.8157052750211733e-07
    outer loop
      vertex 0.13034316897392273 -1.6842291355133057 2.186875343322754
      vertex 0.13034343719482422 1.600000023841858 0.7096482515335083
      vertex 0.13034343719482422 -1.6842291355133057 0.7096482515335083
    endloop
  endfacet
  facet normal -1.0 0.0 -1.8157052750211733e-07
    outer loop
      vertex 0.13034316897392273 -1.6842291355133057 2.186875343322754
      vertex 0.13034316897392273 1.600000023841858 2.186875343322754
      vertex 0.13034343719482422 1.600000023841858 0.7096482515335083
    endloop
  endfacet
  facet normal -0.015622901730239391 0.0 -0.9998779892921448
    outer loop
      vertex 0.13034343719482422 -1.6842291355133057 0.7096482515335083
      vertex 1.0572309494018555 1.600000023841858 0.6951658129692078
      vertex 1.0572309494018555 -1.6842291355133057 0.6951658129692078
    endloop
  endfacet
  facet normal -0.015622901730239391 0.0 -0.9998779892921448
    outer loop
      vertex 0.13034343719482422 -1.6842291355133057 0.7096482515335083
      vertex 0.13034343719482422 1.600000023841858 0.7096482515335083
      vertex 1.0572309494018555 1.600000023841858 0.6951658129692078
    endloop
  endfacet
  facet normal -1.0 0.0 -1.936752340725434e-07
    outer loop
      vertex 1.0572309494018555 -1.6842291355133057 0.6951658129692078
      vertex 1.0572311878204346 1.600000023841858 -0.5358566641807556
      vertex 1.0572311878204346 -1.6842291355133057 -0.5358566641807556
    endloop
  endfacet
  facet normal -1.0 0.0 -1.936752340725434e-07
    outer loop
      vertex 1.0572309494018555 -1.6842291355133057 0.6951658129692078
      vertex 1.0572309494018555 1.600000023841858 0.6951658129692078
      vertex 1.0572311878204346 1.600000023841858 -0.5358566641807556
    endloop
  endfacet
  facet normal -1.7389855599958537e-07 0.0 1.0
    outer loop
      vertex 1.0572311878204346 -1.6842291355133057 -0.5358566641807556
      vertex -3.0558321475982666 1.600000023841858 -0.5358573794364929
      vertex -3.0558321475982666 -1.6842291355133057 -0.5358573794364929
    endloop
  endfacet
  facet normal -1.7389855599958537e-07 0.0 1.0
    outer loop
      vertex 1.0572311878204346 -1.6842291355133057 -0.5358566641807556
      vertex 1.0572311878204346 1.600000023841858 -0.5358566641807556
      vertex -3.0558321475982666 1.600000023841858 -0.5358573794364929
    endloop
  endfacet
  facet normal 1.0 0.0 1.751318592368989e-07
    outer loop
      vertex -3.0558321475982666 -1.6842291355133057 -0.5358573794364929
      vertex -3.055832624435425 1.600000023841858 2.1868746280670166
      vertex -3.055832624435425 -1.6842291355133057 2.1868746280670166
    endloop
  endfacet
  facet normal 1.0 -0.0 1.751318592368989e-07
    outer loop
      vertex -3.0558321475982666 -1.6842291355133057 -0.5358573794364929
      vertex -3.0558321475982666 1.600000023841858 -0.5358573794364929
      vertex -3.055832624435425 1.600000023841858 2.1868746280670166
    endloop
  endfacet
  facet normal 2.2448720926604437e-07 0.0 -1.0
    outer loop
      vertex -3.055832624435425 -1.6842291355133057 2.1868746280670166
      vertex 0.13034316897392273 1.600000023841858 2.186875343322754
      vertex 0.13034316897392273 -1.6842291355133057 2.186875343322754
    endloop
  endfacet
  facet normal 2.2448720926604437e-07 0.0 -1.0
    outer loop
      vertex -3.055832624435425 -1.6842291355133057 2.1868746280670166
      vertex -3.055832624435425 1.600000023841858 2.1868746280670166
      vertex 0.13034316897392273 1.600000023841858 2.186875343322754
    endloop
  endfacet
  facet normal 0.0 -1.0 0.0
    outer loop
      vertex 1.0572311878204346 1.600000023841858 -0.5358566641807556
      vertex 1.0572309494018555 1.600000023841858 0.6951658129692078
      vertex 0.13034343719482422 1.600000023841858 0.7096482515335083
    endloop
  endfacet
  facet normal 0.0 -1.0 0.0
    outer loop
      vertex 0.13034343719482422 1.600000023841858 0.7096482515335083
      vertex 0.13034316897392273 1.600000023841858 2.186875343322754
      vertex -3.055832624435425 1.600000023841858 2.1868746280670166
    endloop
  endfacet
  facet normal 0.0 -1.0 0.0
    outer loop
      vertex -3.055832624435425 1.600000023841858 2.1868746280670166
      vertex -3.0558321475982666 1.600000023841858 -0.5358573794364929
      vertex 1.0572311878204346 1.600000023841858 -0.5358566641807556
    endloop
  endfacet
  facet normal 0.0 -1.0 0.0
    outer loop
      vertex 1.0572311878204346 1.600000023841858 -0.5358566641807556
      vertex 0.13034343719482422 1.600000023841858 0.7096482515335083
      vertex -3.055832624435425 1.600000023841858 2.1868746280670166
    endloop
  endfacet
endsolid mesh