solid mesh
  facet normal -1.0 0.0 -1.6440318972854584e-07
    outer loop
      vertex 5.347636699676514 -1.4123862981796265 0.634466290473938
      vertex 5.347637176513672 1.600000023841858 -2.265946865081787
      vertex 5.347637176513672 -1.4123862981796265 -2.265946865081787
    endloop
  endfacet
  facet normal -1.0 0.0 -1.6440318972854584e-07
    outer loop
      vertex 5.347636699676514 -1.4123862981796265 0.634466290473938
      vertex 5.347636699676514 1.600000023841858 0.634466290473938
      vertex 5.347637176513672 1.600000023841858 -2.265946865081787
    endloop
  endfacet
  facet normal -1.4546273519044917e-07 0.0 1.0
    outer loop
      vertex 5.347637176513672 -1.4123862981796265 -2.265946865081787
      vertex 0.43053045868873596 1.600000023841858 -2.2659475803375244
      vertex 0.43053045868873596 -1.4123862981796265 -2.2659475803375244
    endloop
  endfacet
  facet normal -1.4546273519044917e-07 0.0 1.0
    outer loop
      vertex 5.347637176513672 -1.4123862981796265 -2.265946865081787
      vertex 5.347637176513672 1.600000023841858 -2.265946865081787
      vertex 0.43053045868873596 1.600000023841858 -2.2659475803375244
    endloop
  endfacet
  facet normal -0.999851405620575 0.0 0.017238637432456017
    outer loop
      vertex 0.43053045868873596 -1.4123862981796265 -2.2659475803375244
      vertex 0.40787121653556824 1.600000023841858 -3.580197334289551
      vertex 0.40787121653556824 -1.4123862981796265 -3.580197334289551
    endloop
  endfacet
  facet normal -0.999851405620575 0.0 0.017238637432456017
    outer loop
      vertex 0.43053045868873596 -1.4123862981796265 -2.2659475803375244
      vertex 0.43053045868873596 1.600000023841858 -2.2659475803375244
      vertex 0.40787121653556824 1.600000023841858 -3.580197334289551
    endloop
  endfacet
  facet normal -1.4029072303856083e-07 0.0 1.0
    outer loop
      vertex 0.40787121653556824 -1.4123862981796265 -3.580197334289551
      vertex -1.291589617729187 1.600000023841858 -3.58019757270813
      vertex -1.291589617729187 -1.4123862981796265 -3.58019757270813
    endloop
  endfacet
  facet normal -1.4029072303856083e-07 0.0 1.0
    outer loop
      vertex 0.40787121653556824 -1.4123862981796265 -3.580197334289551
      vertex 0.40787121653556824 1.600000023841858 -3.580197334289551
      vertex -1.291589617729187 1.600000023841858 -3.58019757270813
    endloop
  endfacet
  facet normal 1.0 0.0 1.6970652438885736e-07
    outer loop
      vertex -1.291589617729187 -1.4123862981796265 -3.58019757270813
      vertex -1.2915903329849243 1.600000023841858 0.6344651579856873
      vertex -1.2915903329849243 -1.4123862981796265 0.6344651579856873
    endloop
  endfacet
  facet normal 1.0 -0.0 1.6970652438885736e-07
    outer loop
      vertex -1.291589617729187 -1.4123862981796265 -3.58019757270813
      vertex -1.291589617729187 1.600000023841858 -3.58019757270813
      vertex -1.2915903329849243 1.600000023841858 0.6344651579856873
    endloop
  endfacet
  facet normal 1.7057531920272595e-07 0.0 -1.0
    outer loop
      vertex -1.2915903329849243 -1.4123862981796265 0.6344651579856873
      vertex 5.347636699676514 1.600000023841858 0.634466290473938
      vertex 5.347636699676514 -1.4123862981796265 0.634466290473938
    endloop
  endfacet
  facet normal 1.7057531920272595e-07 0.0 -1.0
    outer loop
      vertex -1.2915903329849243 -1.4123862981796265 0.6344651579856873
      vertex -1.2915903329849243 1.600000023841858 0.6344651579856873
      vertex 5.347636699676514 1.600000023841858 0.634466290473938
    endloop
  endfacet
  facet normal 0.0 -1.0 0.0
    outer loop
      vertex 0.43053045868873596 1.600000023841858 -2.2659475803375244
      vertex 5.347637176513672 1.600000023841858 -2.265946865081787
      vertex 5.347636699676514 1.600000023841858 0.634466290473938
    endloop
  endfacet
  facet normal 0.0 -1.0 0.0
    outer loop
      vertex -1.2915903329849243 1.600000023841858 0.6344651579856873
      vertex -1.291589617729187 1.600000023841858 -3.58019757270813
      vertex 0.40787121653556824 1.600000023841858 -3.580197334289551
    endloop
  endfacet
  facet normal 0.0 -1.0 0.0
    outer loop
      vertex 0.43053045868873596 1.600000023841858 -2.2659475803375244
      vertex 5.347636699676514 1.600000023841858 0.634466290473938
      vertex -1.2915903329849243 1.600000023841858 0.6344651579856873
    endloop
  endfacet
  facet normal 0.0 -1.0 0.0
    outer loop
      vertex -1.2915903329849243 1.600000023841858 0.6344651579856873
      vertex 0.40787121653556824 1.600000023841858 -3.580197334289551
      vertex 0.43053045868873596 1.600000023841858 -2.2659475803375244
    endloop
  endfacet
endsolid mesh