solid mesh
  facet normal -1.0 0.0 -1.3163089818135632e-07
    outer loop
      vertex 2.5700395107269287 -1.2836635112762451 0.8566803336143494
      vertex 2.570039749145508 1.600000023841858 -0.9545857310295105
      vertex 2.570039749145508 -1.2836635112762451 -0.9545857310295105
    endloop
  endfacet
  facet normal -1.0 0.0 -1.3163089818135632e-07
    outer loop
      vertex 2.5700395107269287 -1.2836635112762451 0.8566803336143494
      vertex 2.5700395107269287 1.600000023841858 0.8566803336143494
      vertex 2.570039749145508 1.600000023841858 -0.9545857310295105
    endloop
  endfacet
  facet normal -1.7636340032822773e-07 0.0 1.0
    outer loop
      vertex 2.570039749145508 -1.2836635112762451 -0.9545857310295105
      vertex -6.217048168182373 1.600000023841858 -0.9545872807502747
      vertex -6.217048168182373 -1.2836635112762451 -0.9545872807502747
    endloop
  endfacet
  facet normal -1.7636340032822773e-07 0.0 1.0
    outer loop
      vertex 2.570039749145508 -1.2836635112762451 -0.9545857310295105
      vertex 2.570039749145508 1.600000023841858 -0.9545857310295105
      vertex -6.217048168182373 1.600000023841858 -0.9545872807502747
    endloop
  endfacet
  facet normal 1.0 0.0 2.6326179636271263e-07
    outer loop
      vertex -6.217048168182373 -1.2836635112762451 -0.9545872807502747
      vertex -6.217048645019531 1.600000023841858 0.8566787838935852
      vertex -6.217048645019531 -1.2836635112762451 0.8566787838935852
    endloop
  endfacet
  facet normal 1.0 -0.0 2.6326179636271263e-07
    outer loop
      vertex -6.217048168182373 -1.2836635112762451 -0.9545872807502747
      vertex -6.217048168182373 1.600000023841858 -0.9545872807502747
      vertex -6.217048645019531 1.600000023841858 0.8566787838935852
    endloop
  endfacet
  facet normal 1.7636340032822773e-07 0.0 -1.0
    outer loop
      vertex -6.217048645019531 -1.2836635112762451 0.8566787838935852
      vertex 2.5700395107269287 1.600000023841858 0.8566803336143494
      vertex 2.5700395107269287 -1.2836635112762451 0.8566803336143494
    endloop
  endfacet
  facet normal 1.7636340032822773e-07 0.0 -1.0
    outer loop
      vertex -6.217048645019531 -1.2836635112762451 0.8566787838935852
      vertex -6.217048645019531 1.600000023841858 0.8566787838935852
      vertex 2.5700395107269287 1.600000023841858 0.8566803336143494
    endloop
  endfacet
  facet normal 0.0 -1.0 0.0
    outer loop
      vertex -6.217048645019531 1.600000023841858 0.8566787838935852
      vertex -6.217048168182373 1.600000023841858 -0.9545872807502747
      vertex 2.570039749145508 1.600000023841858 -0.9545857310295105
    endloop
  endfacet
  facet normal 0.0 -1.0 0.0
    outer loop
      vertex 2.570039749145508 1.600000023841858 -0.9545857310295105
      vertex 2.5700395107269287 1.600000023841858 0.8566803336143494
      vertex -6.217048645019531 1.600000023841858 0.8566787838935852
    endloop
  endfacet
endsolid mesh