solid mesh
  facet normal -1.0 0.0 -1.60778938607109e-07
    outer loop
      vertex 1.9734364748001099 -1.5511318445205688 3.044731616973877
      vertex 1.9734370708465576 1.600000023841858 -0.6625106334686279
      vertex 1.9734370708465576 -1.5511318445205688 -0.6625106334686279
    endloop
  endfacet
  facet normal -1.0 0.0 -1.60778938607109e-07
    outer loop
      vertex 1.9734364748001099 -1.5511318445205688 3.044731616973877
      vertex 1.9734364748001099 1.600000023841858 3.044731616973877
      vertex 1.9734370708465576 1.600000023841858 -0.6625106334686279
    endloop
  endfacet
  facet normal -1.865508494347523e-07 0.0 1.0
    outer loop
      vertex 1.9734370708465576 -1.5511318445205688 -0.6625106334686279
      vertex -0.9021425247192383 1.600000023841858 -0.6625111699104309
      vertex -0.9021425247192383 -1.5511318445205688 -0.6625111699104309
    endloop
  endfacet
  facet normal -1.865508494347523e-07 0.0 1.0
    outer loop
      vertex 1.9734370708465576 -1.5511318445205688 -0.6625106334686279
      vertex 1.9734370708465576 1.600000023841858 -0.6625106334686279
      vertex -0.9021425247192383 1.600000023841858 -0.6625111699104309
    endloop
  endfacet
  facet normal 1.0 0.0 1.7220078518676019e-07
    outer loop
      vertex -0.9021425247192383 -1.5511318445205688 -0.6625111699104309
      vertex -0.9021430611610413 1.600000023841858 2.452700138092041
      vertex -0.9021430611610413 -1.5511318445205688 2.452700138092041
    endloop
  endfacet
  facet normal 1.0 -0.0 1.7220078518676019e-07
    outer loop
      vertex -0.9021425247192383 -1.5511318445205688 -0.6625111699104309
      vertex -0.9021425247192383 1.600000023841858 -0.6625111699104309
      vertex -0.9021430611610413 1.600000023841858 2.452700138092041
    endloop
  endfacet
  facet normal 1.4094952405230288e-07 0.0 -1.0
    outer loop
      vertex -0.9021430611610413 -1.5511318445205688 2.452700138092041
      vertex 0.7893743515014648 1.600000023841858 2.45270037651062
      vertex 0.7893743515014648 -1.5511318445205688 2.45270037651062
    endloop
  endfacet
  facet normal 1.4094952405230288e-07 0.0 -1.0
    outer loop
      vertex -0.9021430611610413 -1.5511318445205688 2.452700138092041
      vertex -0.9021430611610413 1.600000023841858 2.452700138092041
      vertex 0.7893743515014648 1.600000023841858 2.45270037651062
    endloop
  endfacet
  facet normal 0.9997166991233826 0.0 -0.023802652955055237
    outer loop
      vertex 0.7893743515014648 -1.5511318445205688 2.45270037651062
      vertex 0.803470253944397 1.600000023841858 3.044731378555298
      vertex 0.803470253944397 -1.5511318445205688 3.044731378555298
    endloop
  endfacet
  facet normal 0.9997166991233826 0.0 -0.023802652955055237
    outer loop
      vertex 0.7893743515014648 -1.5511318445205688 2.45270037651062
      vertex 0.7893743515014648 1.600000023841858 2.45270037651062
      vertex 0.803470253944397 1.600000023841858 3.044731378555298
    endloop
  endfacet
  facet normal 2.0378244869334594e-07 0.0 -1.0
    outer loop
      vertex 0.803470253944397 -1.5511318445205688 3.044731378555298
      vertex 1.9734364748001099 1.600000023841858 3.044731616973877
      vertex 1.9734364748001099 -1.5511318445205688 3.044731616973877
    endloop
  endfacet
  facet normal 2.0378244869334594e-07 0.0 -1.0
    outer loop
      vertex 0.803470253944397 -1.5511318445205688 3.044731378555298
      vertex 0.803470253944397 1.600000023841858 3.044731378555298
      vertex 1.9734364748001099 1.600000023841858 3.044731616973877
    endloop
  endfacet
  facet normal 0.0 -1.0 0.0
    outer loop
      vertex -0.9021430611610413 1.600000023841858 2.452700138092041
      vertex -0.9021425247192383 1.600000023841858 -0.6625111699104309
      vertex 1.9734370708465576 1.600000023841858 -0.6625106334686279
    endloop
  endfacet
  facet normal 0.0 -1.0 0.0
    outer loop
      vertex 1.9734370708465576 1.600000023841858 -0.6625106334686279
      vertex 1.9734364748001099 1.600000023841858 3.044731616973877
      vertex 0.803470253944397 1.600000023841858 3.044731378555298
    endloop
  endfacet
  facet normal 0.0 -1.0 -0.0
    outer loop
      vertex 0.7893743515014648 1.600000023841858 2.45270037651062
      vertex -0.9021430611610413 1.600000023841858 2.452700138092041
      vertex 1.9734370708465576 1.600000023841858 -0.6625106334686279
    endloop
  endfacet
  facet normal 0.0 -1.0 0.0
    outer loop
      vertex 1.9734370708465576 1.600000023841858 -0.6625106334686279
      vertex 0.803470253944397 1.600000023841858 3.044731378555298
      vertex 0.7893743515014648 1.600000023841858 2.45270037651062
    endloop
  endfacet
endsolid mesh