solid mesh
  facet normal -1.0 0.0 -1.7413074715477705e-07
    outer loop
      vertex 0.391762375831604 -1.6008036136627197 5.071157932281494
      vertex 0.39176368713378906 1.600000023841858 -2.459402561187744
      vertex 0.39176368713378906 -1.6008036136627197 -2.459402561187744
    endloop
  endfacet
  facet normal -1.0 0.0 -1.7413074715477705e-07
    outer loop
      vertex 0.391762375831604 -1.6008036136627197 5.071157932281494
      vertex 0.391762375831604 1.600000023841858 5.071157932281494
      vertex 0.39176368713378906 1.600000023841858 -2.459402561187744
    endloop
  endfacet
  facet normal -1.7251035444587615e-07 0.0 1.0
    outer loop
      vertex 0.39176368713378906 -1.6008036136627197 -2.459402561187744
      vertex -2.3723437786102295 1.600000023841858 -2.4594030380249023
      vertex -2.3723437786102295 -1.6008036136627197 -2.4594030380249023
    endloop
  endfacet
  facet normal -1.7251035444587615e-07 0.0 1.0
    outer loop
      vertex 0.39176368713378906 -1.6008036136627197 -2.459402561187744
      vertex 0.39176368713378906 1.600000023841858 -2.459402561187744
      vertex -2.3723437786102295 1.600000023841858 -2.4594030380249023
    endloop
  endfacet
  facet normal 1.0 0.0 1.5830069344247022e-07
    outer loop
      vertex -2.3723437786102295 -1.6008036136627197 -2.4594030380249023
      vertex -2.372344970703125 1.600000023841858 5.071157455444336
      vertex -2.372344970703125 -1.6008036136627197 5.071157455444336
    endloop
  endfacet
  facet normal 1.0 -0.0 1.5830069344247022e-07
    outer loop
      vertex -2.3723437786102295 -1.6008036136627197 -2.4594030380249023
      vertex -2.3723437786102295 1.600000023841858 -2.4594030380249023
      vertex -2.372344970703125 1.600000023841858 5.071157455444336
    endloop
  endfacet
  facet normal 1.7251038286758558e-07 0.0 -1.0
    outer loop
      vertex -2.372344970703125 -1.6008036136627197 5.071157455444336
      vertex 0.391762375831604 1.600000023841858 5.071157932281494
      vertex 0.391762375831604 -1.6008036136627197 5.071157932281494
    endloop
  endfacet
  facet normal 1.7251038286758558e-07 0.0 -1.0
    outer loop
      vertex -2.372344970703125 -1.6008036136627197 5.071157455444336
      vertex -2.372344970703125 1.600000023841858 5.071157455444336
      vertex 0.391762375831604 1.600000023841858 5.071157932281494
    endloop
  endfacet
  facet normal 0.0 -1.0 0.0
    outer loop
      vertex -2.372344970703125 1.600000023841858 5.071157455444336
      vertex -2.3723437786102295 1.600000023841858 -2.4594030380249023
      vertex 0.39176368713378906 1.600000023841858 -2.459402561187744
    endloop
  endfacet
  facet normal 0.0 -1.0 0.0
    outer loop
      vertex 0.39176368713378906 1.600000023841858 -2.459402561187744
      vertex 0.391762375831604 1.600000023841858 5.071157932281494
      vertex -2.372344970703125 1.600000023841858 5.071157455444336
    endloop
  endfacet
endsolid mesh