solid mesh
  facet normal -1.0 0.0 -1.708005612499619e-07
    outer loop
      vertex 0.9487680196762085 -1.053053617477417 0.5016476511955261
      vertex 0.9487685561180115 1.600000023841858 -2.639101982116699
      vertex 0.9487685561180115 -1.053053617477417 -2.639101982116699
    endloop
  endfacet
  facet normal -1.0 0.0 -1.708005612499619e-07
    outer loop
      vertex 0.9487680196762085 -1.053053617477417 0.5016476511955261
      vertex 0.9487680196762085 1.600000023841858 0.5016476511955261
      vertex 0.9487685561180115 1.600000023841858 -2.639101982116699
    endloop
  endfacet
  facet normal -1.572839778418711e-07 0.0 1.0
    outer loop
      vertex 0.9487685561180115 -1.053053617477417 -2.639101982116699
      vertex -0.5670793056488037 1.600000023841858 -2.6391022205352783
      vertex -0.5670793056488037 -1.053053617477417 -2.6391022205352783
    endloop
  endfacet
  facet normal -1.572839778418711e-07 0.0 1.0
    outer loop
      vertex 0.9487685561180115 -1.053053617477417 -2.639101982116699
      vertex 0.9487685561180115 1.600000023841858 -2.639101982116699
      vertex -0.5670793056488037 1.600000023841858 -2.6391022205352783
    endloop
  endfacet
  facet normal 1.0 0.0 1.8482765540284163e-07
    outer loop
      vertex -0.5670793056488037 -1.053053617477417 -2.6391022205352783
      vertex -0.5670797228813171 1.600000023841858 -0.3816884160041809
      vertex -0.5670797228813171 -1.053053617477417 -0.3816884160041809
    endloop
  endfacet
  facet normal 1.0 -0.0 1.8482765540284163e-07
    outer loop
      vertex -0.5670793056488037 -1.053053617477417 -2.6391022205352783
      vertex -0.5670793056488037 1.600000023841858 -2.6391022205352783
      vertex -0.5670797228813171 1.600000023841858 -0.3816884160041809
    endloop
  endfacet
  facet normal 0.02855963446199894 0.0 0.999592125415802
    outer loop
      vertex -0.5670797228813171 -1.053053617477417 -0.3816884160041809
      vertex -0.9487680196762085 1.600000023841858 -0.37078309059143066
      vertex -0.9487680196762085 -1.053053617477417 -0.37078309059143066
    endloop
  endfacet
  facet normal 0.02855963446199894 -0.0 0.999592125415802
    outer loop
      vertex -0.5670797228813171 -1.053053617477417 -0.3816884160041809
      vertex -0.5670797228813171 1.600000023841858 -0.3816884160041809
      vertex -0.9487680196762085 1.600000023841858 -0.37078309059143066
    endloop
  endfacet
  facet normal 1.0 0.0 2.0496068486863805e-07
    outer loop
      vertex -0.9487680196762085 -1.053053617477417 -0.37078309059143066
      vertex -0.9487681984901428 1.600000023841858 0.5016473531723022
      vertex -0.9487681984901428 -1.053053617477417 0.5016473531723022
    endloop
  endfacet
  facet normal 1.0 -0.0 2.0496068486863805e-07
    outer loop
      vertex -0.9487680196762085 -1.053053617477417 -0.37078309059143066
      vertex -0.9487680196762085 1.600000023841858 -0.37078309059143066
      vertex -0.9487681984901428 1.600000023841858 0.5016473531723022
    endloop
  endfacet
  facet normal 1.5705796840848052e-07 0.0 -1.0
    outer loop
      vertex -0.9487681984901428 -1.053053617477417 0.5016473531723022
      vertex 0.9487680196762085 1.600000023841858 0.5016476511955261
      vertex 0.9487680196762085 -1.053053617477417 0.5016476511955261
    endloop
  endfacet
  facet normal 1.5705796840848052e-07 0.0 -1.0
    outer loop
      vertex -0.9487681984901428 -1.053053617477417 0.5016473531723022
      vertex -0.9487681984901428 1.600000023841858 0.5016473531723022
      vertex 0.9487680196762085 1.600000023841858 0.5016476511955261
    endloop
  endfacet
  facet normal 0.0 -1.0 0.0
    outer loop
      vertex -0.5670797228813171 1.600000023841858 -0.3816884160041809
      vertex -0.5670793056488037 1.600000023841858 -2.6391022205352783
      vertex 0.9487685561180115 1.600000023841858 -2.639101982116699
    endloop
  endfacet
  facet normal 0.0 -1.0 0.0
    outer loop
      vertex 0.9487685561180115 1.600000023841858 -2.639101982116699
      vertex 0.9487680196762085 1.600000023841858 0.5016476511955261
      vertex -0.9487681984901428 1.600000023841858 0.5016473531723022
    endloop
  endfacet
  facet normal 0.0 -1.0 0.0
    outer loop
      vertex -0.9487681984901428 1.600000023841858 0.5016473531723022
      vertex -0.9487680196762085 1.600000023841858 -0.37078309059143066
      vertex -0.5670797228813171 1.600000023841858 -0.3816884160041809
    endloop
  endfacet
  facet normal 0.0 -1.0 0.0
    outer loop
      vertex -0.5670797228813171 1.600000023841858 -0.3816884160041809
      vertex 0.9487685561180115 1.600000023841858 -2.639101982116699
      vertex -0.9487681984901428 1.600000023841858 0.5016473531723022
    endloop
  endfacet
endsolid mesh