solid mesh
  facet normal -1.0 0.0 -2.599698518679361e-07
    outer loop
      vertex 0.6044521331787109 -1.136651635169983 2.5637128353118896
      vertex 0.6044521927833557 1.600000023841858 2.334437608718872
      vertex 0.6044521927833557 -1.136651635169983 2.334437608718872
    endloop
  endfacet
  facet normal -1.0 0.0 -2.599698518679361e-07
    outer loop
      vertex 0.6044521331787109 -1.136651635169983 2.5637128353118896
      vertex 0.6044521331787109 1.600000023841858 2.5637128353118896
      vertex 0.6044521927833557 1.600000023841858 2.334437608718872
    endloop
  endfacet
  facet normal -0.00480743357911706 0.0 -0.9999884963035583
    outer loop
      vertex 0.6044521927833557 -1.136651635169983 2.334437608718872
      vertex 4.939836502075195 1.600000023841858 2.3135952949523926
      vertex 4.939836502075195 -1.136651635169983 2.3135952949523926
    endloop
  endfacet
  facet normal -0.00480743357911706 0.0 -0.9999884963035583
    outer loop
      vertex 0.6044521927833557 -1.136651635169983 2.334437608718872
      vertex 0.6044521927833557 1.600000023841858 2.334437608718872
      vertex 4.939836502075195 1.600000023841858 2.3135952949523926
    endloop
  endfacet
  facet normal -1.0 0.0 -1.6458528762086644e-07
    outer loop
      vertex 4.939836502075195 -1.136651635169983 2.3135952949523926
      vertex 4.9398369789123535 1.600000023841858 -0.5836085677146912
      vertex 4.9398369789123535 -1.136651635169983 -0.5836085677146912
    endloop
  endfacet
  facet normal -1.0 0.0 -1.6458528762086644e-07
    outer loop
      vertex 4.939836502075195 -1.136651635169983 2.3135952949523926
      vertex 4.939836502075195 1.600000023841858 2.3135952949523926
      vertex 4.9398369789123535 1.600000023841858 -0.5836085677146912
    endloop
  endfacet
  facet normal -1.657779620245492e-07 0.0 1.0
    outer loop
      vertex 4.9398369789123535 -1.136651635169983 -0.5836085677146912
      vertex 0.625295877456665 1.600000023841858 -0.5836092829704285
      vertex 0.625295877456665 -1.136651635169983 -0.5836092829704285
    endloop
  endfacet
  facet normal -1.657779620245492e-07 0.0 1.0
    outer loop
      vertex 4.9398369789123535 -1.136651635169983 -0.5836085677146912
      vertex 4.9398369789123535 1.600000023841858 -0.5836085677146912
      vertex 0.625295877456665 1.600000023841858 -0.5836092829704285
    endloop
  endfacet
  facet normal -0.9998220205307007 0.0 0.01886436715722084
    outer loop
      vertex 0.625295877456665 -1.136651635169983 -0.5836092829704285
      vertex 0.604452908039093 1.600000023841858 -1.6882984638214111
      vertex 0.604452908039093 -1.136651635169983 -1.6882984638214111
    endloop
  endfacet
  facet normal -0.9998220205307007 0.0 0.01886436715722084
    outer loop
      vertex 0.625295877456665 -1.136651635169983 -0.5836092829704285
      vertex 0.625295877456665 1.600000023841858 -0.5836092829704285
      vertex 0.604452908039093 1.600000023841858 -1.6882984638214111
    endloop
  endfacet
  facet normal -2.0185902371849807e-07 0.0 1.0
    outer loop
      vertex 0.604452908039093 -1.136651635169983 -1.6882984638214111
      vertex -1.167218565940857 1.600000023841858 -1.6882988214492798
      vertex -1.167218565940857 -1.136651635169983 -1.6882988214492798
    endloop
  endfacet
  facet normal -2.0185902371849807e-07 0.0 1.0
    outer loop
      vertex 0.604452908039093 -1.136651635169983 -1.6882984638214111
      vertex 0.604452908039093 1.600000023841858 -1.6882984638214111
      vertex -1.167218565940857 1.600000023841858 -1.6882988214492798
    endloop
  endfacet
  facet normal 1.0 0.0 1.6821587678350625e-07
    outer loop
      vertex -1.167218565940857 -1.136651635169983 -1.6882988214492798
      vertex -1.1672192811965942 1.600000023841858 2.5637125968933105
      vertex -1.1672192811965942 -1.136651635169983 2.5637125968933105
    endloop
  endfacet
  facet normal 1.0 -0.0 1.6821587678350625e-07
    outer loop
      vertex -1.167218565940857 -1.136651635169983 -1.6882988214492798
      vertex -1.167218565940857 1.600000023841858 -1.6882988214492798
      vertex -1.1672192811965942 1.600000023841858 2.5637125968933105
    endloop
  endfacet
  facet normal 1.3457268721595028e-07 0.0 -1.0
    outer loop
      vertex -1.1672192811965942 -1.136651635169983 2.5637125968933105
      vertex 0.6044521331787109 1.600000023841858 2.5637128353118896
      vertex 0.6044521331787109 -1.136651635169983 2.5637128353118896
    endloop
  endfacet
  facet normal 1.3457268721595028e-07 0.0 -1.0
    outer loop
      vertex -1.1672192811965942 -1.136651635169983 2.5637125968933105
      vertex -1.1672192811965942 1.600000023841858 2.5637125968933105
      vertex 0.6044521331787109 1.600000023841858 2.5637128353118896
    endloop
  endfacet
  facet normal 0.0 -1.0 0.0
    outer loop
      vertex 4.9398369789123535 1.600000023841858 -0.5836085677146912
      vertex 4.939836502075195 1.600000023841858 2.3135952949523926
      vertex 0.6044521927833557 1.600000023841858 2.334437608718872
    endloop
  endfacet
  facet normal 0.0 -1.0 0.0
    outer loop
      vertex 0.6044521927833557 1.600000023841858 2.334437608718872
      vertex 0.6044521331787109 1.600000023841858 2.5637128353118896
      vertex -1.1672192811965942 1.600000023841858 2.5637125968933105
    endloop
  endfacet
  facet normal 0.0 -1.0 0.0
    outer loop
      vertex -1.1672192811965942 1.600000023841858 2.5637125968933105
      vertex -1.167218565940857 1.600000023841858 -1.6882988214492798
      vertex 0.604452908039093 1.600000023841858 -1.6882984638214111
    endloop
  endfacet
  facet normal 0.0 -1.0 0.0
    outer loop
      vertex 0.625295877456665 1.600000023841858 -0.5836092829704285
      vertex 4.9398369789123535 1.600000023841858 -0.5836085677146912
      vertex 0.6044521927833557 1.600000023841858 2.334437608718872
    endloop
  endfacet
  facet normal -0.0 -1.0 -0.0
    outer loop
      vertex 0.6044521927833557 1.600000023841858 2.334437608718872
      vertex -1.1672192811965942 1.600000023841858 2.5637125968933105
      vertex 0.604452908039093 1.600000023841858 -1.6882984638214111
    endloop
  endfacet
  facet normal 0.0 -1.0 0.0
    outer loop
      vertex 0.604452908039093 1.600000023841858 -1.6882984638214111
      vertex 0.625295877456665 1.600000023841858 -0.5836092829704285
      vertex 0.6044521927833557 1.600000023841858 2.334437608718872
    endloop
  endfacet
endsolid mesh