solid mesh
  facet normal -1.0 0.0 -1.6746400888223434e-07
    outer loop
      vertex 3.8304314613342285 -1.423545002937317 2.067755937576294
      vertex 3.8304319381713867 1.600000023841858 -0.7796447277069092
      vertex 3.8304319381713867 -1.423545002937317 -0.7796447277069092
    endloop
  endfacet
  facet normal -1.0 0.0 -1.6746400888223434e-07
    outer loop
      vertex 3.8304314613342285 -1.423545002937317 2.067755937576294
      vertex 3.8304314613342285 1.600000023841858 2.067755937576294
      vertex 3.8304319381713867 1.600000023841858 -0.7796447277069092
    endloop
  endfacet
  facet normal -1.7317300660124602e-07 0.0 1.0
    outer loop
      vertex 3.8304319381713867 -1.423545002937317 -0.7796447277069092
      vertex -0.6440547704696655 1.600000023841858 -0.7796455025672913
      vertex -0.6440547704696655 -1.423545002937317 -0.7796455025672913
    endloop
  endfacet
  facet normal -1.7317300660124602e-07 0.0 1.0
    outer loop
      vertex 3.8304319381713867 -1.423545002937317 -0.7796447277069092
      vertex 3.8304319381713867 1.600000023841858 -0.7796447277069092
      vertex -0.6440547704696655 1.600000023841858 -0.7796455025672913
    endloop
  endfacet
  facet normal -0.9998347163200378 0.0 0.018178626894950867
    outer loop
      vertex -0.6440547704696655 -1.423545002937317 -0.7796455025672913
      vertex -0.6610034108161926 1.600000023841858 -1.7118302583694458
      vertex -0.6610034108161926 -1.423545002937317 -1.7118302583694458
    endloop
  endfacet
  facet normal -0.9998347163200378 0.0 0.018178626894950867
    outer loop
      vertex -0.6440547704696655 -1.423545002937317 -0.7796455025672913
      vertex -0.6440547704696655 1.600000023841858 -0.7796455025672913
      vertex -0.6610034108161926 1.600000023841858 -1.7118302583694458
    endloop
  endfacet
  facet normal -1.6356950993667851e-07 0.0 1.0
    outer loop
      vertex -0.6610034108161926 -1.423545002937317 -1.7118302583694458
      vertex -2.1186013221740723 1.600000023841858 -1.711830496788025
      vertex -2.1186013221740723 -1.423545002937317 -1.711830496788025
    endloop
  endfacet
  facet normal -1.6356950993667851e-07 0.0 1.0
    outer loop
      vertex -0.6610034108161926 -1.423545002937317 -1.7118302583694458
      vertex -0.6610034108161926 1.600000023841858 -1.7118302583694458
      vertex -2.1186013221740723 1.600000023841858 -1.711830496788025
    endloop
  endfacet
  facet normal 1.0 0.0 1.892418453053324e-07
    outer loop
      vertex -2.1186013221740723 -1.423545002937317 -1.711830496788025
      vertex -2.1186020374298096 1.600000023841858 2.0677547454833984
      vertex -2.1186020374298096 -1.423545002937317 2.0677547454833984
    endloop
  endfacet
  facet normal 1.0 -0.0 1.892418453053324e-07
    outer loop
      vertex -2.1186013221740723 -1.423545002937317 -1.711830496788025
      vertex -2.1186013221740723 1.600000023841858 -1.711830496788025
      vertex -2.1186020374298096 1.600000023841858 2.0677547454833984
    endloop
  endfacet
  facet normal 2.0038429227042798e-07 0.0 -1.0
    outer loop
      vertex -2.1186020374298096 -1.423545002937317 2.0677547454833984
      vertex 3.8304314613342285 1.600000023841858 2.067755937576294
      vertex 3.8304314613342285 -1.423545002937317 2.067755937576294
    endloop
  endfacet
  facet normal 2.0038429227042798e-07 0.0 -1.0
    outer loop
      vertex -2.1186020374298096 -1.423545002937317 2.0677547454833984
      vertex -2.1186020374298096 1.600000023841858 2.0677547454833984
      vertex 3.8304314613342285 1.600000023841858 2.067755937576294
    endloop
  endfacet
  facet normal 0.0 -1.0 0.0
    outer loop
      vertex -0.6440547704696655 1.600000023841858 -0.7796455025672913
      vertex 3.8304319381713867 1.600000023841858 -0.7796447277069092
      vertex 3.8304314613342285 1.600000023841858 2.067755937576294
    endloop
  endfacet
  facet normal 0.0 -1.0 0.0
    outer loop
      vertex 3.8304314613342285 1.600000023841858 2.067755937576294
      vertex -2.1186020374298096 1.600000023841858 2.0677547454833984
      vertex -2.1186013221740723 1.600000023841858 -1.711830496788025
    endloop
  endfacet
  facet normal 0.0 -1.0 0.0
    outer loop
      vertex -2.1186013221740723 1.600000023841858 -1.711830496788025
      vertex -0.6610034108161926 1.600000023841858 -1.7118302583694458
      vertex -0.6440547704696655 1.600000023841858 -0.7796455025672913
    endloop
  endfacet
  facet normal -0.0 -1.0 0.0
    outer loop
      vertex -0.6440547704696655 1.600000023841858 -0.7796455025672913
      vertex 3.8304314613342285 1.600000023841858 2.067755937576294
      vertex -2.1186013221740723 1.600000023841858 -1.711830496788025
    endloop
  endfacet
endsolid mesh