solid mesh
  facet normal -1.0 0.0 -2.2560728041298717e-07
    outer loop
      vertex 4.210234642028809 -1.4829373359680176 0.8454294204711914
      vertex 4.210235118865967 1.600000023841858 -1.2681423425674438
      vertex 4.210235118865967 -1.4829373359680176 -1.2681423425674438
    endloop
  endfacet
  facet normal -1.0 0.0 -2.2560728041298717e-07
    outer loop
      vertex 4.210234642028809 -1.4829373359680176 0.8454294204711914
      vertex 4.210234642028809 1.600000023841858 0.8454294204711914
      vertex 4.210235118865967 1.600000023841858 -1.2681423425674438
    endloop
  endfacet
  facet normal -1.068216306521208e-07 0.0 1.0
    outer loop
      vertex 4.210235118865967 -1.4829373359680176 -1.2681423425674438
      vertex 3.094269275665283 1.600000023841858 -1.2681424617767334
      vertex 3.094269275665283 -1.4829373359680176 -1.2681424617767334
    endloop
  endfacet
  facet normal -1.068216306521208e-07 0.0 1.0
    outer loop
      vertex 4.210235118865967 -1.4829373359680176 -1.2681423425674438
      vertex 4.210235118865967 1.600000023841858 -1.2681423425674438
      vertex 3.094269275665283 1.600000023841858 -1.2681424617767334
    endloop
  endfacet
  facet normal -0.9997829794883728 0.0 0.020828604698181152
    outer loop
      vertex 3.094269275665283 -1.4829373359680176 -1.2681424617767334
      vertex 3.0773608684539795 1.600000023841858 -2.079754114151001
      vertex 3.0773608684539795 -1.4829373359680176 -2.079754114151001
    endloop
  endfacet
  facet normal -0.9997829794883728 0.0 0.020828604698181152
    outer loop
      vertex 3.094269275665283 -1.4829373359680176 -1.2681424617767334
      vertex 3.094269275665283 1.600000023841858 -1.2681424617767334
      vertex 3.0773608684539795 1.600000023841858 -2.079754114151001
    endloop
  endfacet
  facet normal -1.9404293993829924e-07 0.0 1.0
    outer loop
      vertex 3.0773608684539795 -1.4829373359680176 -2.079754114151001
      vertex -0.6087083220481873 1.600000023841858 -2.0797548294067383
      vertex -0.6087083220481873 -1.4829373359680176 -2.0797548294067383
    endloop
  endfacet
  facet normal -1.9404293993829924e-07 0.0 1.0
    outer loop
      vertex 3.0773608684539795 -1.4829373359680176 -2.079754114151001
      vertex 3.0773608684539795 1.600000023841858 -2.079754114151001
      vertex -0.6087083220481873 1.600000023841858 -2.0797548294067383
    endloop
  endfacet
  facet normal -0.9998852610588074 0.0 0.015149574726819992
    outer loop
      vertex -0.6087083220481873 -1.4829373359680176 -2.0797548294067383
      vertex -0.6256166696548462 1.600000023841858 -3.195720672607422
      vertex -0.6256166696548462 -1.4829373359680176 -3.195720672607422
    endloop
  endfacet
  facet normal -0.9998852610588074 0.0 0.015149574726819992
    outer loop
      vertex -0.6087083220481873 -1.4829373359680176 -2.0797548294067383
      vertex -0.6087083220481873 1.600000023841858 -2.0797548294067383
      vertex -0.6256166696548462 1.600000023841858 -3.195720672607422
    endloop
  endfacet
  facet normal -1.3558128841850703e-07 0.0 1.0
    outer loop
      vertex -0.6256166696548462 -1.4829373359680176 -3.195720672607422
      vertex -2.384108304977417 1.600000023841858 -3.195720911026001
      vertex -2.384108304977417 -1.4829373359680176 -3.195720911026001
    endloop
  endfacet
  facet normal -1.3558128841850703e-07 0.0 1.0
    outer loop
      vertex -0.6256166696548462 -1.4829373359680176 -3.195720672607422
      vertex -0.6256166696548462 1.600000023841858 -3.195720672607422
      vertex -2.384108304977417 1.600000023841858 -3.195720911026001
    endloop
  endfacet
  facet normal 1.0 0.0 1.769931543549319e-07
    outer loop
      vertex -2.384108304977417 -1.4829373359680176 -3.195720911026001
      vertex -2.3841090202331543 1.600000023841858 0.8454282879829407
      vertex -2.3841090202331543 -1.4829373359680176 0.8454282879829407
    endloop
  endfacet
  facet normal 1.0 -0.0 1.769931543549319e-07
    outer loop
      vertex -2.384108304977417 -1.4829373359680176 -3.195720911026001
      vertex -2.384108304977417 1.600000023841858 -3.195720911026001
      vertex -2.3841090202331543 1.600000023841858 0.8454282879829407
    endloop
  endfacet
  facet normal 1.717363034003938e-07 0.0 -1.0
    outer loop
      vertex -2.3841090202331543 -1.4829373359680176 0.8454282879829407
      vertex 4.210234642028809 1.600000023841858 0.8454294204711914
      vertex 4.210234642028809 -1.4829373359680176 0.8454294204711914
    endloop
  endfacet
  facet normal 1.717363034003938e-07 0.0 -1.0
    outer loop
      vertex -2.3841090202331543 -1.4829373359680176 0.8454282879829407
      vertex -2.3841090202331543 1.600000023841858 0.8454282879829407
      vertex 4.210234642028809 1.600000023841858 0.8454294204711914
    endloop
  endfacet
  facet normal 0.0 -1.0 0.0
    outer loop
      vertex 3.094269275665283 1.600000023841858 -1.2681424617767334
      vertex 4.210235118865967 1.600000023841858 -1.2681423425674438
      vertex 4.210234642028809 1.600000023841858 0.8454294204711914
    endloop
  endfacet
  facet normal 0.0 -1.0 0.0
    outer loop
      vertex -2.3841090202331543 1.600000023841858 0.8454282879829407
      vertex -2.384108304977417 1.600000023841858 -3.195720911026001
      vertex -0.6256166696548462 1.600000023841858 -3.195720672607422
    endloop
  endfacet
  facet normal 0.0 -1.0 0.0
    outer loop
      vertex -0.6087083220481873 1.600000023841858 -2.0797548294067383
      vertex 3.0773608684539795 1.600000023841858 -2.079754114151001
      vertex 3.094269275665283 1.600000023841858 -1.2681424617767334
    endloop
  endfacet
  facet normal 0.0 -1.0 0.0
    outer loop
      vertex 3.094269275665283 1.600000023841858 -1.2681424617767334
      vertex 4.210234642028809 1.600000023841858 0.8454294204711914
      vertex -2.3841090202331543 1.600000023841858 0.8454282879829407
    endloop
  endfacet
  facet normal 0.0 -1.0 0.0
    outer loop
      vertex -2.3841090202331543 1.600000023841858 0.8454282879829407
      vertex -0.6256166696548462 1.600000023841858 -3.195720672607422
      vertex -0.6087083220481873 1.600000023841858 -2.0797548294067383
    endloop
  endfacet
  facet normal 0.0 -1.0 0.0
    outer loop
      vertex -0.6087083220481873 1.600000023841858 -2.0797548294067383
      vertex 3.094269275665283 1.600000023841858 -1.2681424617767334
      vertex -2.3841090202331543 1.600000023841858 0.8454282879829407
    endloop
  endfacet
endsolid mesh